<svg width="20" height="14" viewBox="0 0 20 14" fill="none" xmlns="http://www.w3.org/2000/svg">
<path d="M9.29883 7.6123C9.29883 9.45215 8.95312 10.8408 8.26172 11.7783C7.57617 12.71 6.53027 13.1758 5.12402 13.1758C3.74121 13.1758 2.69824 12.7217 1.99512 11.8135C1.29785 10.8994 0.94043 9.54883 0.922852 7.76172V5.54688C0.922852 3.70703 1.26562 2.32715 1.95117 1.40723C2.64258 0.487305 3.69434 0.0273438 5.10645 0.0273438C6.50684 0.0273438 7.5498 0.475586 8.23535 1.37207C8.92676 2.26855 9.28125 3.61035 9.29883 5.39746V7.6123ZM7.16309 5.22168C7.16309 4.02051 6.99902 3.1416 6.6709 2.58496C6.34277 2.02246 5.82129 1.74121 5.10645 1.74121C4.40918 1.74121 3.89648 2.00781 3.56836 2.54102C3.24023 3.06836 3.06738 3.89453 3.0498 5.01953V7.91992C3.0498 9.11523 3.2168 10.0059 3.55078 10.5918C3.88477 11.1777 4.40918 11.4707 5.12402 11.4707C5.80957 11.4707 6.31641 11.2012 6.64453 10.6621C6.97266 10.1172 7.14551 9.26758 7.16309 8.11328V5.22168ZM19.793 13H11.1885V11.5322L15.4512 6.88281C16.0664 6.19727 16.5029 5.62598 16.7607 5.16895C17.0244 4.70605 17.1562 4.24316 17.1562 3.78027C17.1562 3.1709 16.9834 2.67871 16.6377 2.30371C16.2979 1.92871 15.8379 1.74121 15.2578 1.74121C14.5664 1.74121 14.0303 1.95215 13.6494 2.37402C13.2686 2.7959 13.0781 3.37305 13.0781 4.10547H10.9424C10.9424 3.32617 11.1182 2.62598 11.4697 2.00488C11.8271 1.37793 12.334 0.891602 12.9902 0.545898C13.6523 0.200195 14.4141 0.0273438 15.2754 0.0273438C16.5176 0.0273438 17.4961 0.34082 18.2109 0.967773C18.9316 1.58887 19.292 2.4502 19.292 3.55176C19.292 4.19043 19.1104 4.86133 18.7471 5.56445C18.3896 6.26172 17.8008 7.05566 16.9805 7.94629L13.8516 11.2949H19.793V13Z" fill="#1939DE"/>
</svg>
