<svg width="20" height="14" viewBox="0 0 20 14" fill="none" xmlns="http://www.w3.org/2000/svg">
<path d="M9.29883 7.6123C9.29883 9.45215 8.95312 10.8408 8.26172 11.7783C7.57617 12.71 6.53027 13.1758 5.12402 13.1758C3.74121 13.1758 2.69824 12.7217 1.99512 11.8135C1.29785 10.8994 0.94043 9.54883 0.922852 7.76172V5.54688C0.922852 3.70703 1.26562 2.32715 1.95117 1.40723C2.64258 0.487305 3.69434 0.0273438 5.10645 0.0273438C6.50684 0.0273438 7.5498 0.475586 8.23535 1.37207C8.92676 2.26855 9.28125 3.61035 9.29883 5.39746V7.6123ZM7.16309 5.22168C7.16309 4.02051 6.99902 3.1416 6.6709 2.58496C6.34277 2.02246 5.82129 1.74121 5.10645 1.74121C4.40918 1.74121 3.89648 2.00781 3.56836 2.54102C3.24023 3.06836 3.06738 3.89453 3.0498 5.01953V7.91992C3.0498 9.11523 3.2168 10.0059 3.55078 10.5918C3.88477 11.1777 4.40918 11.4707 5.12402 11.4707C5.80957 11.4707 6.31641 11.2012 6.64453 10.6621C6.97266 10.1172 7.14551 9.26758 7.16309 8.11328V5.22168ZM13.6582 5.62598H14.959C15.6152 5.62012 16.1338 5.4502 16.5146 5.11621C16.9014 4.78223 17.0947 4.29883 17.0947 3.66602C17.0947 3.05664 16.9336 2.58496 16.6113 2.25098C16.2949 1.91113 15.8086 1.74121 15.1523 1.74121C14.5781 1.74121 14.1064 1.9082 13.7373 2.24219C13.3682 2.57031 13.1836 3.00098 13.1836 3.53418H11.0479C11.0479 2.87793 11.2207 2.28027 11.5664 1.74121C11.918 1.20215 12.4043 0.783203 13.0254 0.484375C13.6523 0.179687 14.3525 0.0273438 15.126 0.0273438C16.4033 0.0273438 17.4053 0.349609 18.1318 0.994141C18.8643 1.63281 19.2305 2.52344 19.2305 3.66602C19.2305 4.24023 19.0459 4.78223 18.6768 5.29199C18.3135 5.7959 17.8418 6.17676 17.2617 6.43457C17.9648 6.6748 18.498 7.05273 18.8613 7.56836C19.2305 8.08398 19.415 8.69922 19.415 9.41406C19.415 10.5625 19.0195 11.4766 18.2285 12.1562C17.4434 12.8359 16.4092 13.1758 15.126 13.1758C13.8955 13.1758 12.8877 12.8477 12.1025 12.1914C11.3174 11.5352 10.9248 10.6621 10.9248 9.57227H13.0605C13.0605 10.1348 13.248 10.5918 13.623 10.9434C14.0039 11.2949 14.5137 11.4707 15.1523 11.4707C15.8145 11.4707 16.3359 11.2949 16.7168 10.9434C17.0977 10.5918 17.2881 10.082 17.2881 9.41406C17.2881 8.74023 17.0889 8.22168 16.6904 7.8584C16.292 7.49512 15.7002 7.31348 14.915 7.31348H13.6582V5.62598Z" fill="#1939DE"/>
</svg>
