<svg width="21" height="14" viewBox="0 0 21 14" fill="none" xmlns="http://www.w3.org/2000/svg">
<path d="M9.29883 7.6123C9.29883 9.45215 8.95312 10.8408 8.26172 11.7783C7.57617 12.71 6.53027 13.1758 5.12402 13.1758C3.74121 13.1758 2.69824 12.7217 1.99512 11.8135C1.29785 10.8994 0.94043 9.54883 0.922852 7.76172V5.54688C0.922852 3.70703 1.26562 2.32715 1.95117 1.40723C2.64258 0.487305 3.69434 0.0273438 5.10645 0.0273438C6.50684 0.0273438 7.5498 0.475586 8.23535 1.37207C8.92676 2.26855 9.28125 3.61035 9.29883 5.39746V7.6123ZM7.16309 5.22168C7.16309 4.02051 6.99902 3.1416 6.6709 2.58496C6.34277 2.02246 5.82129 1.74121 5.10645 1.74121C4.40918 1.74121 3.89648 2.00781 3.56836 2.54102C3.24023 3.06836 3.06738 3.89453 3.0498 5.01953V7.91992C3.0498 9.11523 3.2168 10.0059 3.55078 10.5918C3.88477 11.1777 4.40918 11.4707 5.12402 11.4707C5.80957 11.4707 6.31641 11.2012 6.64453 10.6621C6.97266 10.1172 7.14551 9.26758 7.16309 8.11328V5.22168ZM18.4131 8.43848H20.0039V10.1523H18.4131V13H16.2773V10.1523H10.749L10.6875 8.85156L16.207 0.203125H18.4131V8.43848ZM12.9287 8.43848H16.2773V3.09473L16.1191 3.37598L12.9287 8.43848Z" fill="#1939DE"/>
</svg>
