<svg width="20" height="14" viewBox="0 0 20 14" fill="none" xmlns="http://www.w3.org/2000/svg">
<path d="M9.29883 7.6123C9.29883 9.45215 8.95312 10.8408 8.26172 11.7783C7.57617 12.71 6.53027 13.1758 5.12402 13.1758C3.74121 13.1758 2.69824 12.7217 1.99512 11.8135C1.29785 10.8994 0.94043 9.54883 0.922852 7.76172V5.54688C0.922852 3.70703 1.26562 2.32715 1.95117 1.40723C2.64258 0.487305 3.69434 0.0273438 5.10645 0.0273438C6.50684 0.0273438 7.5498 0.475586 8.23535 1.37207C8.92676 2.26855 9.28125 3.61035 9.29883 5.39746V7.6123ZM7.16309 5.22168C7.16309 4.02051 6.99902 3.1416 6.6709 2.58496C6.34277 2.02246 5.82129 1.74121 5.10645 1.74121C4.40918 1.74121 3.89648 2.00781 3.56836 2.54102C3.24023 3.06836 3.06738 3.89453 3.0498 5.01953V7.91992C3.0498 9.11523 3.2168 10.0059 3.55078 10.5918C3.88477 11.1777 4.40918 11.4707 5.12402 11.4707C5.80957 11.4707 6.31641 11.2012 6.64453 10.6621C6.97266 10.1172 7.14551 9.26758 7.16309 8.11328V5.22168ZM11.7598 6.6543L12.4541 0.203125H19.3271V2.04883H14.2295L13.8779 5.10742C14.4697 4.76758 15.1377 4.59766 15.8818 4.59766C17.1006 4.59766 18.0469 4.9873 18.7207 5.7666C19.4004 6.5459 19.7402 7.59473 19.7402 8.91309C19.7402 10.2139 19.3652 11.251 18.6152 12.0244C17.8652 12.792 16.8369 13.1758 15.5303 13.1758C14.3584 13.1758 13.3857 12.8447 12.6123 12.1826C11.8447 11.5146 11.4287 10.6357 11.3643 9.5459H13.4297C13.5117 10.167 13.7344 10.6445 14.0977 10.9785C14.4609 11.3066 14.9355 11.4707 15.5215 11.4707C16.1777 11.4707 16.6875 11.2363 17.0508 10.7676C17.4199 10.2988 17.6045 9.66016 17.6045 8.85156C17.6045 8.07227 17.4023 7.45703 16.998 7.00586C16.5938 6.54883 16.0371 6.32031 15.3281 6.32031C14.9414 6.32031 14.6133 6.37305 14.3438 6.47852C14.0742 6.57812 13.7812 6.77734 13.4648 7.07617L11.7598 6.6543Z" fill="#1939DE"/>
</svg>
