<svg width="20" height="14" viewBox="0 0 20 14" fill="none" xmlns="http://www.w3.org/2000/svg">
<path d="M9.29883 7.6123C9.29883 9.45215 8.95312 10.8408 8.26172 11.7783C7.57617 12.71 6.53027 13.1758 5.12402 13.1758C3.74121 13.1758 2.69824 12.7217 1.99512 11.8135C1.29785 10.8994 0.94043 9.54883 0.922852 7.76172V5.54688C0.922852 3.70703 1.26562 2.32715 1.95117 1.40723C2.64258 0.487305 3.69434 0.0273438 5.10645 0.0273438C6.50684 0.0273438 7.5498 0.475586 8.23535 1.37207C8.92676 2.26855 9.28125 3.61035 9.29883 5.39746V7.6123ZM7.16309 5.22168C7.16309 4.02051 6.99902 3.1416 6.6709 2.58496C6.34277 2.02246 5.82129 1.74121 5.10645 1.74121C4.40918 1.74121 3.89648 2.00781 3.56836 2.54102C3.24023 3.06836 3.06738 3.89453 3.0498 5.01953V7.91992C3.0498 9.11523 3.2168 10.0059 3.55078 10.5918C3.88477 11.1777 4.40918 11.4707 5.12402 11.4707C5.80957 11.4707 6.31641 11.2012 6.64453 10.6621C6.97266 10.1172 7.14551 9.26758 7.16309 8.11328V5.22168ZM17.833 0.141602V1.9082H17.5693C16.374 1.92578 15.4189 2.25391 14.7041 2.89258C13.9893 3.53125 13.5645 4.43652 13.4297 5.6084C14.1152 4.8877 14.9912 4.52734 16.0576 4.52734C17.1885 4.52734 18.0791 4.92578 18.7295 5.72266C19.3857 6.51953 19.7139 7.54785 19.7139 8.80762C19.7139 10.1084 19.3301 11.1631 18.5625 11.9717C17.8008 12.7744 16.7988 13.1758 15.5566 13.1758C14.2793 13.1758 13.2422 12.7041 12.4453 11.7607C11.6543 10.8174 11.2588 9.58105 11.2588 8.05176V7.32227C11.2588 5.07812 11.8037 3.32031 12.8936 2.04883C13.9893 0.777344 15.5625 0.141602 17.6133 0.141602H17.833ZM15.5391 6.25C15.0703 6.25 14.6396 6.38184 14.2471 6.64551C13.8604 6.90918 13.5762 7.26074 13.3945 7.7002V8.35059C13.3945 9.2998 13.5938 10.0557 13.9922 10.6182C14.3906 11.1748 14.9062 11.4531 15.5391 11.4531C16.1719 11.4531 16.6729 11.2158 17.042 10.7412C17.4111 10.2666 17.5957 9.64258 17.5957 8.86914C17.5957 8.0957 17.4082 7.46582 17.0332 6.97949C16.6582 6.49316 16.1602 6.25 15.5391 6.25Z" fill="#1939DE"/>
</svg>
