<svg width="68" height="80" viewBox="0 0 68 80" fill="none" xmlns="http://www.w3.org/2000/svg">
<path d="M16.4789 37.3778V71.5625H8.93654V37.3778H16.4789Z" fill="#CFD7FF"/>
<path d="M37.7711 37.3778V71.5625H30.2288V37.3778H37.7711Z" fill="#CFD7FF"/>
<path d="M59.0635 37.3781V71.5627H51.5211V37.3781H59.0635Z" fill="#CFD7FF"/>
<path d="M12.7076 18.1769C9.5584 18.1769 6.99622 20.7391 6.99622 23.8883C6.99622 27.0375 9.55825 29.5997 12.7076 29.5997C15.857 29.5997 18.4192 27.0375 18.4192 23.8883C18.4192 20.7391 15.8572 18.1769 12.7076 18.1769ZM12.7076 26.4747C11.2815 26.4747 10.1212 25.3144 10.1212 23.8883C10.1212 22.462 11.2815 21.3019 12.7076 21.3019C14.1339 21.3019 15.2942 22.4622 15.2942 23.8883C15.2942 25.3144 14.1339 26.4747 12.7076 26.4747Z" fill="#00B956"/>
<path d="M8.93665 11.9528H16.479C17.3418 11.9528 18.0415 11.2532 18.0415 10.3903C18.0415 9.52729 17.3418 8.82776 16.479 8.82776H8.93665C8.07383 8.82776 7.37415 9.52729 7.37415 10.3903C7.37415 11.2532 8.07368 11.9528 8.93665 11.9528Z" fill="#00B956"/>
<path d="M34 18.1769C30.8508 18.1769 28.2886 20.7391 28.2886 23.8883C28.2886 27.0375 30.8506 29.5997 34 29.5997C37.1494 29.5997 39.7114 27.0375 39.7114 23.8883C39.7114 20.7391 37.1492 18.1769 34 18.1769ZM34 26.4747C32.5739 26.4747 31.4136 25.3144 31.4136 23.8883C31.4136 22.462 32.5739 21.3019 34 21.3019C35.4261 21.3019 36.5864 22.4622 36.5864 23.8883C36.5864 25.3144 35.4261 26.4747 34 26.4747Z" fill="#00B956"/>
<path d="M30.2289 11.9528H37.7712C38.634 11.9528 39.3337 11.2532 39.3337 10.3903C39.3337 9.52729 38.634 8.82776 37.7712 8.82776H30.2289C29.3661 8.82776 28.6664 9.52729 28.6664 10.3903C28.6664 11.2532 29.3661 11.9528 30.2289 11.9528Z" fill="#00B956"/>
<path d="M63.1879 0H47.3965C46.352 0 45.3931 0.373281 44.6461 0.993281C43.899 0.373281 42.9401 0 41.8956 0H26.1043C25.06 0 24.1011 0.373281 23.3539 0.993281C22.6068 0.373281 21.6479 0 20.6034 0H4.81199C2.43387 0 0.499023 1.93484 0.499023 4.31313V75.687C0.499023 78.0653 2.43387 80 4.81199 80H20.6032C21.6478 80 22.6067 79.6267 23.3539 79.0067C24.1009 79.6267 25.0598 80 26.1043 80H41.8956C42.94 80 43.8989 79.6267 44.6461 79.0067C45.3931 79.6267 46.3521 80 47.3965 80H63.1878C65.5659 80 67.5007 78.0652 67.5007 75.687V4.31313C67.5007 1.93484 65.5659 0 63.1879 0V0ZM20.6034 76.875H4.81199C4.15699 76.875 3.62402 76.342 3.62402 75.687V4.31313C3.62402 3.65812 4.15684 3.125 4.81199 3.125H20.6032C21.2582 3.125 21.7914 3.65797 21.7914 4.31313V75.687C21.7914 76.342 21.2584 76.875 20.6034 76.875ZM41.8956 76.875H26.1043C25.4493 76.875 24.9164 76.342 24.9164 75.687V4.31313C24.9164 3.65812 25.4492 3.125 26.1043 3.125H41.8956C42.5506 3.125 43.0836 3.65797 43.0836 4.31313V75.687C43.0836 76.342 42.5507 76.875 41.8956 76.875ZM64.3757 75.687C64.3757 76.342 63.8429 76.875 63.1878 76.875H47.3965C46.7415 76.875 46.2084 76.342 46.2084 75.687V4.31313C46.2084 3.65812 46.7414 3.125 47.3965 3.125H63.1878C63.8428 3.125 64.3757 3.65797 64.3757 4.31313V75.687Z" fill="#1939DE"/>
<path d="M55.2922 18.1769C52.1429 18.1769 49.5807 20.7391 49.5807 23.8883C49.5807 27.0375 52.1427 29.5997 55.2922 29.5997C58.4415 29.5997 61.0037 27.0375 61.0037 23.8883C61.0035 20.7391 58.4415 18.1769 55.2922 18.1769ZM55.2922 26.4747C53.866 26.4747 52.7057 25.3144 52.7057 23.8883C52.7057 22.462 53.866 21.3019 55.2922 21.3019C56.7183 21.3019 57.8787 22.4622 57.8787 23.8883C57.8785 25.3144 56.7182 26.4747 55.2922 26.4747Z" fill="#00B956"/>
<path d="M51.5211 11.9528H59.0635C59.9263 11.9528 60.626 11.2532 60.626 10.3903C60.626 9.52729 59.9263 8.82776 59.0635 8.82776H51.5211C50.6583 8.82776 49.9586 9.52729 49.9586 10.3903C49.9586 11.2532 50.6581 11.9528 51.5211 11.9528Z" fill="#00B956"/>
</svg>
