<svg width="80" height="74" viewBox="0 0 80 74" fill="none" xmlns="http://www.w3.org/2000/svg">
<path d="M25.303 32.3743C27.1016 28.0349 25.042 23.0591 20.7027 21.2605C16.3634 19.4618 11.3876 21.5214 9.58891 25.8607C7.79025 30.2001 9.84987 35.1759 14.1892 36.9745C18.5285 38.7732 23.5043 36.7136 25.303 32.3743Z" fill="#CFD7FF"/>
<path d="M17.1784 31.4624C16.9151 31.4624 16.6499 31.396 16.409 31.2594L14.9454 30.4305C14.1945 30.0054 13.9305 29.0519 14.3557 28.301C14.7809 27.5502 15.7343 27.286 16.4852 27.7115L16.9146 27.9546L18.1841 26.685C18.7943 26.0752 19.7835 26.0752 20.3938 26.685C21.004 27.2952 21.004 28.2846 20.3937 28.8949L18.2837 31.0049C17.9829 31.3055 17.5829 31.4624 17.1784 31.4624Z" fill="#1939DE"/>
<path d="M17.4364 63.8286C22.1326 63.8286 25.9397 60.0215 25.9397 55.3253C25.9397 50.6291 22.1326 46.822 17.4364 46.822C12.7402 46.822 8.93311 50.6291 8.93311 55.3253C8.93311 60.0215 12.7402 63.8286 17.4364 63.8286Z" fill="#CFD7FF"/>
<path d="M17.1784 57.6784C16.9151 57.6784 16.6499 57.6119 16.409 57.4754L14.9454 56.6465C14.1945 56.2213 13.9305 55.2679 14.3557 54.517C14.7809 53.766 15.7343 53.5019 16.4852 53.9274L16.9146 54.1705L18.1841 52.9009C18.7943 52.2909 19.7837 52.2909 20.3938 52.9009C21.004 53.511 21.0041 54.5004 20.394 55.1107L18.284 57.2209C17.9829 57.5215 17.5829 57.6784 17.1784 57.6784Z" fill="#1939DE"/>
<path d="M76.2518 0.125H67.2191C65.1524 0.125 63.4708 1.80656 63.4708 3.87328V60.9925C63.4708 60.9934 63.4708 61.5245 63.6997 61.807L70.391 73.1084C70.6722 73.5834 71.1833 73.8748 71.7355 73.8748C72.2877 73.8748 72.7988 73.5834 73.08 73.1084L79.7713 61.807C79.9636 61.5113 80.0002 60.9936 80.0002 60.9925V3.87328C80 1.80656 78.3185 0.125 76.2518 0.125ZM66.5958 59.4302V13.0938H70.173V59.4302H66.5958ZM73.2979 13.0938H76.875V59.4302H73.2979V13.0938ZM66.5958 3.87328C66.5958 3.52969 66.8755 3.25 67.2191 3.25H76.2518C76.5955 3.25 76.875 3.52969 76.875 3.87328V9.96875H66.5958V3.87328ZM71.7354 69.2456L67.7741 62.5552H75.6964L71.7354 69.2456Z" fill="#00B956"/>
<path d="M50.864 29.8744H31.7106C30.8476 29.8744 30.1481 30.5739 30.1481 31.4369C30.1481 32.2997 30.8476 32.9994 31.7106 32.9994H50.864C51.727 32.9994 52.4265 32.2997 52.4265 31.4369C52.4265 30.5741 51.727 29.8744 50.864 29.8744Z" fill="#CFD7FF"/>
<path d="M31.7106 23.6437C30.8476 23.6437 30.1481 24.3434 30.1481 25.2062C30.1481 26.0691 30.8476 26.7687 31.7106 26.7687H44.1618C45.0248 26.7687 45.7243 26.0691 45.7243 25.2062C45.7243 24.3434 45.0248 23.6437 44.1618 23.6437H31.7106Z" fill="#CFD7FF"/>
<path d="M50.864 56.0903H31.7106C30.8476 56.0903 30.1481 56.79 30.1481 57.6528C30.1481 58.5156 30.8476 59.2153 31.7106 59.2153H50.864C51.727 59.2153 52.4265 58.5156 52.4265 57.6528C52.4265 56.7899 51.727 56.0903 50.864 56.0903Z" fill="#CFD7FF"/>
<path d="M31.7106 52.9846H44.1618C45.0248 52.9846 45.7243 52.2849 45.7243 51.4221C45.7243 50.5593 45.0248 49.8596 44.1618 49.8596H31.7106C30.8476 49.8596 30.1481 50.5593 30.1481 51.4221C30.1481 52.2849 30.8476 52.9846 31.7106 52.9846Z" fill="#CFD7FF"/>
<path d="M55.6291 0.203125H4.16797C1.86969 0.203125 0 2.07281 0 4.37109V69.6289C0 71.9272 1.86969 73.7969 4.16797 73.7969H55.6291C57.9273 73.7969 59.797 71.9272 59.797 69.6289V4.37109C59.797 2.07281 57.9272 0.203125 55.6291 0.203125ZM56.672 69.6289C56.672 70.2041 56.2042 70.6719 55.6291 70.6719H4.16797C3.59281 70.6719 3.125 70.2041 3.125 69.6289V4.37109C3.125 3.79594 3.59281 3.32812 4.16797 3.32812H55.6291C56.2042 3.32812 56.672 3.79594 56.672 4.37109V69.6289Z" fill="#1939DE"/>
<path d="M47.3674 12.4139C47.3674 11.5511 46.6679 10.8514 45.8049 10.8514H13.9919C13.129 10.8514 12.4294 11.5511 12.4294 12.4139C12.4294 13.2768 13.129 13.9764 13.9919 13.9764H45.8049C46.6679 13.9764 47.3674 13.2769 47.3674 12.4139Z" fill="#CFD7FF"/>
</svg>
