<svg width="72" height="80" viewBox="0 0 72 80" fill="none" xmlns="http://www.w3.org/2000/svg">
<path d="M51.8947 56.2821C49.1425 58.0404 46.0811 59.3555 42.8105 60.1271L36 70.7262L29.1895 60.1271C25.9189 59.3555 22.8575 58.0404 20.1053 56.2821H12.4626L0.107178 80.0001H59.5373L71.8928 56.2821H51.8947Z" fill="#CFD7FF"/>
<path d="M36 0C18.8115 0 4.82739 14.0137 4.82739 31.2392C4.82739 38.3198 7.25692 45.2555 11.6683 50.7683C15.8793 56.0308 21.7343 59.822 28.2111 61.4945L33.139 69.1636H30.4044C29.5415 69.1636 28.8419 69.8633 28.8419 70.7261C28.8419 71.5889 29.5415 72.2886 30.4044 72.2886H41.596C42.459 72.2886 43.1585 71.5889 43.1585 70.7261C43.1585 69.8633 42.459 69.1636 41.596 69.1636H38.8615L43.7893 61.4945C50.266 59.822 56.121 56.0306 60.3321 50.7683C64.7435 45.2555 67.173 38.3198 67.173 31.2392C67.1727 14.0137 53.1886 0 36 0V0ZM42.4518 58.6062C42.0577 58.6992 41.715 58.9416 41.496 59.2822L36 67.8356L30.5041 59.2822C30.2852 58.9416 29.9425 58.6991 29.5483 58.6062C16.833 55.6066 7.95239 44.3527 7.95239 31.2392C7.95239 15.737 20.5346 3.125 36 3.125C51.4655 3.125 64.0477 15.737 64.0477 31.2392C64.0477 44.3527 55.1671 55.6066 42.4518 58.6062Z" fill="#1939DE"/>
<path d="M36.0001 9.38928C23.977 9.38928 14.1956 19.1912 14.1956 31.2393C14.1956 43.2874 23.977 53.0893 36.0001 53.0893C48.0232 53.0893 57.8046 43.2876 57.8046 31.2393C57.8046 19.191 48.0232 9.38928 36.0001 9.38928ZM36.0001 49.9643C25.7001 49.9643 17.3206 41.5643 17.3206 31.2393C17.3206 20.9143 25.7001 12.5143 36.0001 12.5143C46.3001 12.5143 54.6796 20.9143 54.6796 31.2393C54.6796 41.5643 46.3001 49.9643 36.0001 49.9643Z" fill="#00B956"/>
</svg>
