<svg width="80" height="70" viewBox="0 0 80 70" fill="none" xmlns="http://www.w3.org/2000/svg">
<path d="M48.688 25.4829H26.9333V19.6458H48.688C49.5508 19.6458 50.2505 18.9461 50.2505 18.0833C50.2505 17.2204 49.5508 16.5208 48.688 16.5208H26.9333V16.3383C26.9333 15.4754 26.2336 14.7758 25.3708 14.7758H3.24281C1.45484 14.7756 0 16.2304 0 18.0186V27.11C0 28.8979 1.45484 30.3528 3.24281 30.3528H25.3708C26.2336 30.3528 26.9333 29.6533 26.9333 28.7903V28.6079H48.688C49.5508 28.6079 50.2505 27.9083 50.2505 27.0454C50.2505 26.1825 49.5508 25.4829 48.688 25.4829ZM23.8083 27.2278H3.24281C3.17781 27.2278 3.125 27.175 3.125 27.11V18.0186C3.125 17.9536 3.17781 17.9006 3.24281 17.9006H23.8083V27.2278Z" fill="#1939DE"/>
<path d="M41.6853 9.62781H62.5351V35.5008H41.6853V9.62781Z" fill="#CFD7FF"/>
<path d="M39.9402 11.1906H64.2799C65.1427 11.1906 65.8424 10.4909 65.8424 9.62811V1.88342C65.8424 1.02061 65.1427 0.320923 64.2799 0.320923H39.9402C39.0774 0.320923 38.3777 1.02061 38.3777 1.88342V9.62811C38.3777 10.4911 39.0774 11.1906 39.9402 11.1906ZM41.5027 3.44592H62.7174V8.06561H41.5027V3.44592Z" fill="#1939DE"/>
<path d="M39.9402 44.8083H64.2799C65.1427 44.8083 65.8424 44.1086 65.8424 43.2458V35.5012C65.8424 34.6383 65.1427 33.9387 64.2799 33.9387H39.9402C39.0774 33.9387 38.3777 34.6384 38.3777 35.5012V43.2458C38.3777 44.1086 39.0774 44.8083 39.9402 44.8083ZM41.5027 37.0636H62.7174V41.6831H41.5027V37.0636Z" fill="#1939DE"/>
<path d="M78.4374 66.5546H73.5862V62.3143C73.5862 60.3743 72.244 58.742 70.4395 58.297V54.5932C70.4395 51.9499 68.2888 49.7993 65.6456 49.7993H38.4017C35.7582 49.7993 33.6076 51.9499 33.6076 54.5932V58.297C31.8032 58.742 30.461 60.3743 30.461 62.3143V66.5548H25.6096C24.7468 66.5548 24.0471 67.2545 24.0471 68.1173C24.0471 68.9801 24.7468 69.6798 25.6096 69.6798H78.4374C79.3002 69.6798 79.9999 68.9801 79.9999 68.1173C79.9999 67.2543 79.3002 66.5546 78.4374 66.5546ZM36.7327 54.5932C36.7327 53.6729 37.4815 52.9243 38.4018 52.9243H65.6457C66.566 52.9243 67.3146 53.6729 67.3146 54.5932V58.1771H36.7327V54.5932ZM33.5862 66.5546V62.3143C33.5862 61.7562 34.0402 61.302 34.5985 61.302H69.4488C70.0071 61.302 70.4612 61.756 70.4612 62.3143V66.5548H33.5862V66.5546Z" fill="#00B956"/>
</svg>
